<?xml version="1.0" ?><svg viewBox="0 0 430.44 242.51" xmlns="http://www.w3.org/2000/svg" fill="#F8BD7F"><title/><g data-name="Layer 2" id="Layer_2"><g data-name="colosseum, coliseum, landmark, rome, architecture, roman, arena, gladiator, stadium" id="colosseum_coliseum_landmark_rome_architecture_roman_arena_gladiator_stadium"><path d="M425,231.58h-6a5.47,5.47,0,1,0,0,10.93h6a5.47,5.47,0,1,0,0-10.93Z"/><path d="M305.05,72.45A5.47,5.47,0,0,0,310.52,67V30.58a5.47,5.47,0,0,0-10.94,0V67A5.47,5.47,0,0,0,305.05,72.45Z"/><path d="M70.1,52.76v6.85a5.47,5.47,0,0,0,10.94,0V52.76a5.47,5.47,0,0,0-10.94,0Z"/><path d="M135.67,52.76v6.85a5.47,5.47,0,0,0,10.93,0V52.76a5.47,5.47,0,0,0-10.93,0Z"/><path d="M201.24,52.76v6.85a5.47,5.47,0,0,0,10.93,0V52.76a5.47,5.47,0,0,0-10.93,0Z"/><path d="M266.8,52.76v6.85a5.47,5.47,0,0,0,10.93,0V52.76a5.47,5.47,0,0,0-10.93,0Z"/><path d="M343.3,59.61V52.76a5.47,5.47,0,0,0-10.93,0v6.85a5.47,5.47,0,0,0,10.93,0Z"/><path d="M12.28,36.05H26.64V60.32a5.47,5.47,0,1,0,10.93,0V36.05H48.05a5.47,5.47,0,0,0,0-10.93H17.75V10.93h175.4a5.47,5.47,0,0,0,0-10.93H12.28A5.46,5.46,0,0,0,6.82,5.47V30.58A5.46,5.46,0,0,0,12.28,36.05Z"/><path d="M223.63,10.93h.42a5.47,5.47,0,1,0,0-10.93h-.42a5.47,5.47,0,0,0,0,10.93Z"/><path d="M70.89,25.12a5.47,5.47,0,1,0,0,10.93h32V67a5.47,5.47,0,1,0,10.93,0V36.05h54.63V67a5.47,5.47,0,1,0,10.93,0V36.05H234V67A5.47,5.47,0,1,0,245,67V36.05H288.1A5.47,5.47,0,0,0,292.91,28L279.38,2.87A5.46,5.46,0,0,0,274.57,0h-19a5.47,5.47,0,0,0,0,10.93H271.3L279,25.12Z"/><path d="M401.12,0H344.29a5.47,5.47,0,0,0-5.1,3.51l-9.62,25.12a5.47,5.47,0,0,0,5.1,7.42h21a5.47,5.47,0,0,0,0-10.93h-13l5.43-14.19h47.6V25.12H381.29a5.46,5.46,0,0,0-5.46,5.46V78.73H32.11a5.47,5.47,0,0,0-5.47,5.47c0,.1,0,.19,0,.28s0,.19,0,.29V231.58H5.47a5.47,5.47,0,1,0,0,10.93h391a5.47,5.47,0,0,0,0-10.93h-9.75V161.86c0-.21,0-.41-.06-.62a5.92,5.92,0,0,0,.06-.62,5.46,5.46,0,0,0-5.47-5.46H363.21V126.3a25.38,25.38,0,0,0-50.76,0v28.86h-14.8V126.3a25.21,25.21,0,0,0-1.49-8.57,5.47,5.47,0,1,0-10.29,3.69,14.44,14.44,0,0,1,.85,4.88v28.86h-28.9V126.3a14.47,14.47,0,0,1,14.45-14.45q.39,0,.78,0a5.47,5.47,0,0,0,.58-10.92c-.45,0-.91,0-1.36,0a25.41,25.41,0,0,0-25.38,25.38v28.86H232.08V126.3a25.38,25.38,0,0,0-50.76,0v28.86H126.69V126.3a14.45,14.45,0,1,1,28.89,0v15.58a5.47,5.47,0,0,0,10.94,0V126.3a25.38,25.38,0,1,0-50.76,0v28.86H101V126.3a25.38,25.38,0,0,0-50.76,0v28.86H37.57V89.66h65.32v10a5.47,5.47,0,0,0,10.93,0v-10h54.63v10a5.47,5.47,0,0,0,10.93,0v-10H234v10a5.47,5.47,0,0,0,10.93,0v-10h54.63v10a5.47,5.47,0,0,0,10.94,0v-10h65.31v43.63a5.47,5.47,0,0,0,10.93,0V36.05h14.36a5.47,5.47,0,0,0,5.47-5.47V5.47A5.47,5.47,0,0,0,401.12,0ZM155.58,231.58H126.69V202.73a14.45,14.45,0,1,1,28.89,0Zm65.57,0h-28.9V202.73a14.45,14.45,0,0,1,28.9,0Zm131.13,0H323.39V202.73a14.45,14.45,0,1,1,28.89,0ZM323.39,126.3a14.45,14.45,0,1,1,28.89,0v28.86H323.39Zm-262.27,0a14.45,14.45,0,0,1,28.9,0v28.86H61.12Zm41.77,39.79V176a5.47,5.47,0,1,0,10.93,0v-9.95h54.63V176a5.47,5.47,0,1,0,10.93,0v-9.95h25.2a5.47,5.47,0,0,0,0-10.93H192.25V126.3a14.45,14.45,0,0,1,28.9,0v34.32a5.47,5.47,0,0,0,5.46,5.47H234V176A5.47,5.47,0,1,0,245,176v-9.95h54.63V176a5.47,5.47,0,1,0,10.94,0v-9.95h65.31v65.49H363.21V202.73a25.38,25.38,0,1,0-50.76,0v28.85H257.82V202.73a14.45,14.45,0,0,1,28.9,0v14.92a5.47,5.47,0,1,0,10.93,0V202.73a25.38,25.38,0,0,0-50.76,0v28.85H232.08V202.73a25.38,25.38,0,0,0-50.76,0v28.85h-14.8V202.73a25.38,25.38,0,1,0-50.76,0v28.85H101V202.73a25.38,25.38,0,0,0-50.76,0v16.16a5.47,5.47,0,1,0,10.93,0V202.73a14.45,14.45,0,0,1,28.9,0v28.85H37.57V166.09Z"/></g></g></svg>