<?xml version="1.0" ?><svg id="Icons" viewBox="0 0 24 24" xmlns="http://www.w3.org/2000/svg"><title/><path d="M12,1A9.956,9.956,0,0,0,2,10.889a9.789,9.789,0,0,0,3.375,7.4v1.488A3.24,3.24,0,0,0,8.625,23h6.75a3.24,3.24,0,0,0,3.25-3.222V18.29A9.789,9.789,0,0,0,22,10.889,9.956,9.956,0,0,0,12,1Zm5,16.038a1,1,0,0,0-.379.784v1.956A1.238,1.238,0,0,1,15.375,21H15V18a1,1,0,0,0-2,0v3H11V18a1,1,0,0,0-2,0v3H8.625a1.238,1.238,0,0,1-1.25-1.222V17.822A1,1,0,0,0,7,17.038a7.815,7.815,0,0,1-3-6.149,8,8,0,0,1,16,0A7.815,7.815,0,0,1,17,17.038Z"/><circle cx="9" cy="13" r="2"/><circle cx="15" cy="13" r="2"/></svg>